PathFileType	4	(X/Y/Z)	D:/视觉行为平台/test_2/20260814/mocap/street1/street1-Unnamed.trc
DataRate	CameraRate	NumFrames	NumMarkers	Units	OrigDataRate	OrigDataStartFrame	OrigNumFrames	useTimeStamp
90	90	     25	0	mm	90	14143	     22628	         1
Frame#	Time	Timestamp	
			X1	Y1	Z1	X2	Y2	Z2	X3	Y3	Z3	X4	Y4	Z4	X5	Y5	Z5	X6	Y6	Z6	X7	Y7	Z7	X8	Y8	Z8	X9	Y9	Z9	X10	Y10	Z10	X11	Y11	Z11	X12	Y12	Z12	X13	Y13	Z13	X14	Y14	Z14	X15	Y15	Z15	X16	Y16	Z16	X17	Y17	Z17	X18	Y18	Z18	X19	Y19	Z19	X20	Y20	Z20	X21	Y21	Z21	X22	Y22	Z22	X23	Y23	Z23	X24	Y24	Z24	X25	Y25	Z25	X26	Y26	Z26	X27	Y27	Z27	X28	Y28	Z28	X29	Y29	Z29	X30	Y30	Z30	X31	Y31	Z31	X32	Y32	Z32	X33	Y33	Z33	X34	Y34	Z34	X35	Y35	Z35	X36	Y36	Z36	X37	Y37	Z37	X38	Y38	Z38	X39	Y39	Z39	X40	Y40	Z40	X41	Y41	Z41	X42	Y42	Z42	X43	Y43	Z43	X44	Y44	Z44	X45	Y45	Z45	X46	Y46	Z46	X47	Y47	Z47	X48	Y48	Z48	X49	Y49	Z49	X50	Y50	Z50	X51	Y51	Z51	X52	Y52	Z52	X53	Y53	Z53	X54	Y54	Z54	X55	Y55	Z55	

14143	157.133	1787219104146	-158.319595	667.418579	1359.108643	-166.566940	37.619129	1325.283569	20.404198	982.359314	1210.397827	-29.624668	1018.159424	1260.959229	93.324692	1043.997437	1380.760498	-87.210190	452.456909	1436.495605	189.412399	1270.763672	1587.019165	128.262756	995.919739	1397.638550	190.155090	1026.102783	1493.528687	-116.763824	898.029297	1358.577271	231.921234	1078.071411	1587.327393	86.655304	980.524475	1304.109985	79.469841	938.677002	1342.602051	
14144	157.144	1787219104157	-158.452911	667.394287	1359.145508	-166.620132	37.554981	1325.288086	20.230871	982.210205	1210.317749	-29.870634	1018.266235	1260.832642	93.324692	1043.997437	1380.760498	-87.275230	452.318420	1436.574097	189.272705	1270.540649	1586.888916	128.198807	995.935364	1397.630737	190.213043	1026.023804	1493.528076	-116.763824	898.029297	1358.577271	232.030624	1077.992798	1587.069458	86.827393	980.567993	1304.081665	78.071289	938.505676	1343.362793	
14145	157.155	1787219104168	-158.412979	667.434143	1359.191528	-166.604279	37.609818	1325.355225	20.101799	982.130249	1210.337646	-30.064894	1018.502014	1260.591675	93.379349	1043.854126	1380.946899	-87.326759	452.245331	1436.680786	189.314453	1270.687988	1586.951660	128.334442	995.891907	1397.711304	190.172089	1026.178101	1493.585815	-116.780746	897.953491	1358.621704	231.888580	1078.149292	1587.267944	87.289207	980.757690	1304.019775	78.284027	938.158997	1343.334961	
14146	157.166	1787219104179	-158.494720	667.334839	1359.160767	-166.561783	37.503857	1325.255005	19.988159	982.153015	1210.299316	-30.277143	1018.587402	1260.399170	93.329597	1043.377808	1381.103394	-87.358719	452.495605	1436.472168	189.049438	1270.630493	1586.715942	128.518402	995.741089	1398.004150	190.155090	1025.880005	1493.605469	-116.851097	897.991699	1358.572998	231.792511	1078.141235	1587.204468	87.711121	980.533752	1304.072876	79.520607	938.245544	1343.196777	
14147	157.177	1787219104190	-158.497330	667.358459	1359.262207	-166.636887	37.507736	1325.292114	20.065081	981.846130	1210.300537	-30.381350	1018.774597	1260.116089	93.533600	1042.831055	1381.164917	-87.211975	452.432281	1436.503418	189.309402	1270.841553	1586.831299	128.617599	995.354919	1398.133423	190.465515	1025.772705	1493.553955	-116.907532	898.084595	1358.561157	231.619949	1078.100952	1587.398438	88.151550	980.463501	1303.911621	80.045158	937.612854	1342.907959	
14148	157.188	1787219104201	-158.579407	667.353699	1359.210693	-166.591370	37.601055	1325.351562	20.199923	981.600830	1210.418579	-30.436701	1018.814880	1259.963501	93.530556	1042.566772	1381.034790	-87.292229	452.403625	1436.593384	189.050507	1270.607666	1586.765625	128.795197	994.791748	1398.145386	190.436325	1025.312744	1493.536011	-116.851097	897.991699	1358.572998	231.585571	1078.165649	1587.361206	88.825134	979.996033	1304.011963	80.622421	937.128296	1343.087402	
14149	157.200	1787219104213	-158.581726	667.352356	1359.204590	-166.507141	37.579376	1325.280273	20.243248	981.261597	1210.507690	-30.367449	1018.860596	1259.904907	94.056824	1042.026611	1381.093384	-87.292229	452.403625	1436.593384	188.891602	1270.557129	1586.511597	128.910263	994.249939	1398.436279	190.529083	1025.067749	1493.706543	-116.974167	898.056396	1358.570923	231.485550	1077.842773	1587.310303	89.070381	979.538696	1304.017456	80.928925	936.761841	1342.857422	
14150	157.211	1787219104224	-158.620117	667.380066	1359.171997	-166.542313	37.592514	1325.340820	20.229698	980.911987	1210.677490	-30.420067	1018.785950	1259.956421	93.910210	1041.652710	1381.394165	-87.379631	452.402496	1436.619995	188.807800	1270.586914	1586.230347	129.014145	993.750183	1398.616699	190.413681	1024.715698	1493.777588	-116.862396	897.968872	1358.587646	231.637207	1077.860962	1587.408203	89.234306	979.333740	1304.222656	81.121086	936.390869	1342.775024	
14151	157.222	1787219104235	-158.586899	667.349182	1359.193237	-166.566788	37.629993	1325.279053	20.202141	980.586121	1210.556763	-30.376696	1018.656067	1259.916504	93.666000	1040.951050	1381.687256	-87.367050	452.209381	1436.771729	188.828979	1270.480713	1586.166626	128.704010	993.188660	1398.891357	190.347946	1024.568115	1493.941406	-116.971581	897.941162	1358.595337	231.463211	1077.767944	1587.105103	89.417892	979.306641	1304.491455	81.123825	936.270203	1342.817383	
14152	157.233	1787219104246	-158.594604	667.371643	1359.208374	-166.559067	37.615761	1325.239136	20.191996	980.085327	1210.478516	-30.366293	1018.539429	1259.721680	93.456505	1040.760986	1382.086426	-87.367683	452.447540	1436.687500	188.871719	1270.381836	1586.193237	128.426163	992.987244	1399.009888	190.347778	1024.331299	1493.975708	-116.948654	897.935303	1358.610840	231.582489	1077.735962	1587.015381	89.267014	979.445801	1304.819824	81.122894	936.270081	1342.825317	
14153	157.244	1787219104257	-158.567368	667.290771	1359.233276	-166.573242	37.624603	1325.354736	20.003431	979.651123	1210.155640	-30.514046	1018.330811	1259.046875	92.977196	1040.538330	1382.645752	-87.373367	452.271362	1436.962402	189.009476	1270.261597	1586.141724	127.909920	992.650146	1399.169800	190.359344	1024.220825	1493.953491	-116.982651	897.913818	1358.615845	231.686127	1077.654541	1586.741089	89.184204	979.941467	1305.027222	80.714874	936.077271	1342.765625	
14154	157.255	1787219104268	-158.595123	667.301392	1359.263672	-166.526428	37.685249	1325.296387	19.865257	978.883972	1209.847290	-30.830227	1018.156189	1258.327515	92.433754	1040.096313	1382.980835	-87.443222	452.068024	1437.150024	188.935577	1270.270264	1585.991943	127.740921	992.512817	1399.028198	190.299759	1024.137085	1493.769287	-116.974892	897.607178	1358.652710	231.556427	1077.607910	1586.295654	89.020035	980.237610	1305.103271	80.731529	936.292603	1342.496948	
14155	157.266	1787219104279	-158.573257	667.278687	1359.307251	-166.521759	37.606796	1325.337769	19.536360	978.057922	1209.433350	-31.213579	1017.827576	1257.551880	92.124176	1039.919189	1383.415649	-87.405518	452.172668	1437.086670	188.922073	1270.414795	1585.833008	127.889534	992.421448	1399.062622	190.429932	1024.261108	1493.735718	-117.063004	897.720703	1358.630005	231.979065	1077.919312	1586.373169	88.293442	980.448364	1305.079468	80.025101	936.108765	1342.281250	
14156	157.277	1787219104290	-158.597031	667.285706	1359.289185	-166.574875	37.622086	1325.350220	19.114355	977.554626	1208.822876	-31.699135	1017.640930	1256.664795	92.015373	1039.629272	1383.504272	-87.511185	452.051819	1437.230713	188.866455	1270.389404	1585.539429	128.055923	992.393433	1398.955078	190.670609	1024.224365	1493.609863	-117.245819	897.994812	1358.769775	231.806824	1077.959351	1586.116699	87.485481	980.582458	1304.817383	79.392410	936.004211	1341.853638	
14157	157.288	1787219104301	-158.592239	667.267029	1359.343872	-166.523880	37.625931	1325.342896	18.743237	976.976562	1208.411621	-32.137791	1017.161804	1256.138916	92.225151	1039.414185	1383.493408	-87.456093	452.083557	1437.155151	188.940521	1270.387207	1585.626953	128.224075	992.105408	1398.586670	190.819168	1024.135132	1493.586182	-117.293587	897.774292	1359.021973	231.832397	1077.993408	1586.060913	86.545479	980.535828	1304.351562	80.363655	935.963440	1340.443359	
14158	157.300	1787219104312	-158.701721	667.200684	1359.425903	-166.554489	37.689121	1325.303589	18.311216	976.121399	1207.944458	-32.516171	1016.771423	1255.675293	92.953049	1039.374390	1383.265869	-87.534409	452.148712	1437.174805	188.930298	1270.514404	1585.581421	128.596664	991.694153	1398.237549	190.833771	1023.895996	1493.640015	-117.341812	897.769592	1359.002930	232.227921	1078.074707	1586.492188	85.834175	980.288635	1303.863403	79.607513	936.019226	1340.156006	
14159	157.311	1787219104323	-158.720901	667.271362	1359.437012	-166.531494	37.715179	1325.209229	17.700207	975.303650	1207.545776	-33.115837	1016.064941	1255.262573	93.757690	1038.895874	1382.877319	-87.496841	452.042542	1437.390137	188.921249	1270.503662	1585.630981	128.886856	991.087280	1398.103638	191.184341	1023.617798	1493.542603	-117.334099	897.759827	1359.043091	232.272125	1078.101685	1586.621460	85.212097	979.917969	1303.292603	76.687988	934.667419	1340.004761	
14160	157.322	1787219104334	-158.858963	667.141296	1359.649292	-166.518906	37.655087	1325.286621	16.881952	974.426636	1207.352539	-34.059662	1015.554260	1254.772095	94.238426	1038.574707	1382.630737	-87.486526	452.048859	1437.345947	188.987656	1270.324585	1585.723511	129.148941	990.917725	1397.929199	191.443604	1023.445923	1493.391235	-117.088013	897.599487	1359.169189	232.443924	1077.973999	1586.676270	85.201881	979.764038	1302.755981	76.465675	934.943420	1339.496460	
14161	157.333	1787219104346	-158.835999	667.126526	1359.606323	-166.641296	37.609463	1325.375122	16.068550	973.372986	1207.048462	-34.625805	1015.251709	1254.236206	94.416542	1038.333618	1382.475342	-87.491501	451.883606	1437.467529	189.001251	1270.286987	1585.772339	129.424622	990.744995	1397.757446	191.512024	1023.394531	1493.416870	-117.195580	897.698730	1359.335571	232.443924	1077.973999	1586.676270	84.996872	979.785522	1302.148804	76.011536	934.944153	1338.704956	
14162	157.344	1787219104357	-158.891449	667.198914	1359.714844	-166.607300	37.589172	1325.340454	15.593090	972.837280	1206.823486	-35.305908	1015.043884	1253.609985	94.491516	1038.186523	1382.542725	-87.536911	452.023102	1437.370483	189.180481	1270.290283	1585.770264	129.507996	990.324524	1397.566040	191.641983	1023.269836	1493.368896	-117.117905	897.527405	1359.340332	232.436111	1077.868164	1586.601562	84.792419	980.090759	1301.816284	76.478157	934.812256	1338.281860	
14163	157.355	1787219104368	-158.824326	667.127747	1359.734863	-166.538666	37.586826	1325.322754	14.877957	972.369995	1206.539307	-35.831276	1015.062805	1253.149658	94.275215	1037.911499	1382.688843	-87.439667	452.075195	1437.391724	189.189163	1270.343506	1585.624023	129.475327	990.325684	1397.445801	191.621780	1023.315125	1493.255005	-117.129143	897.431030	1359.222778	232.449493	1077.902100	1586.529297	84.726479	980.597900	1301.863159	77.368843	935.139038	1337.755737	
14164	157.366	1787219104379	-158.716400	667.160767	1359.752563	-166.578720	37.627323	1325.314697	14.352841	972.187378	1206.362305	-36.486847	1014.940552	1252.733765	93.863518	1037.871216	1382.864746	-87.488037	451.957611	1437.545532	189.297745	1270.318970	1585.316040	129.024673	990.275330	1397.416748	191.531982	1023.275269	1493.232544	-117.071831	897.599915	1359.349243	232.626999	1078.150269	1585.976196	84.663246	980.915894	1302.050781	77.749886	935.523804	1337.551392	
14165	157.377	1787219104390	-158.828232	667.050781	1359.789429	-166.626389	37.539524	1325.313965	13.789787	971.866272	1206.113525	-36.949604	1014.933472	1252.383545	92.866997	1037.742310	1383.348145	-87.452263	451.965820	1437.602417	189.345810	1270.317383	1585.160767	128.616760	990.450500	1397.616577	191.391922	1023.426697	1492.927734	-116.980530	897.499817	1359.332886	232.820312	1078.074585	1585.564575	84.757607	981.485657	1302.234375	77.893051	935.869324	1337.471558	
14166	157.388	1787219104401	-158.692139	667.087646	1359.729492	-166.648071	37.626720	1325.328247	13.485096	971.797974	1205.892944	-37.127502	1014.964355	1252.155029	92.161446	1037.815430	1383.744751	-87.393463	452.016052	1437.561523	189.239502	1270.341431	1584.794067	128.000641	990.537231	1397.712402	191.315674	1023.526428	1492.811157	-117.139618	897.660278	1359.222900	233.051285	1078.239990	1585.332031	84.544434	982.079590	1302.506592	77.884705	936.041626	1337.503174	
14167	157.400	1787219104413	-158.587936	667.059814	1359.733765	-166.568802	37.663921	1325.282715	13.158087	971.617249	1205.724243	-37.437820	1015.204773	1251.785645	91.383835	1037.998291	1383.936035	-87.447029	451.846924	1437.773682	189.473648	1270.402588	1584.417847	127.152679	990.652222	1397.895020	190.859314	1023.711670	1492.547241	-116.978546	897.626404	1359.104858	233.012665	1078.349731	1584.625122	84.353081	982.255005	1302.756958	77.815063	936.317810	1337.505615	
